# xmcd
#
# Track frame offsets: 
#        150
#        11742
#        30080
#        43114
#        55625
#        66082
#        78015
#        90672
#        101032
#        113293
#        125520
#
# Disc length: 1838 seconds
#
# Revision: 0
# Processed by: cddbd v1.5.2PL0 Copyright (c) Steve Scherf et al.
# Submitted via: ExactAudioCopy v1.0b1
#
DISCID=77072c0b
DTITLE=Wilson Pickett - Hey Jude
DYEAR=1968
DGENRE=R&B
TTITLE0=Save Me (stereo)
TTITLE1=Hey Jude (stereo)
TTITLE2=Back In Your Arms (stereo)
TTITLE3=Toe Hold (stereo)
TTITLE4=Night Owl (stereo)
TTITLE5=My Own Style Of Loving (stereo)
TTITLE6=A Man And A Half (stereo)
TTITLE7=Sit Down And Talk This Over (stereo)
TTITLE8=Search Your Heart (stereo)
TTITLE9=Born To Be Wild (stereo)
TTITLE10=People Make The World (stereo)
EXTD=
EXTT0=
EXTT1=
EXTT2=
EXTT3=
EXTT4=
EXTT5=
EXTT6=
EXTT7=
EXTT8=
EXTT9=
EXTT10=
PLAYORDER=
